<svg width="145" height="169" viewBox="0 0 145 169" fill="none" xmlns="http://www.w3.org/2000/svg">
  <path d="M117.295 27.4879H27.7048V39.7048H117.295V27.4879Z" fill="#D8D8DA" />
  <path d="M117.295 55.9941H27.7048V68.211H117.295V55.9941Z" fill="#D8D8DA" />
  <path d="M43.9939 27.4879H27.7048V39.7048H43.9939V27.4879Z" fill="#C5C5CA" />
  <path d="M43.9939 55.9941H27.7048V68.211H43.9939V55.9941Z" fill="#C5C5CA" />
  <path
    d="M31.7772 96.7168H19.5601V9.16263C19.5601 5.78923 22.2951 3.0542 25.6685 3.0542C29.0419 3.0542 31.7769 5.78923 31.7769 9.16263V96.7168H31.7772Z"
    fill="#EDEDED" />
  <path
    d="M125.44 96.7168H113.223V9.16263C113.223 5.78923 115.958 3.0542 119.332 3.0542C122.705 3.0542 125.44 5.78923 125.44 9.16263V96.7168Z"
    fill="#EDEDED" />
  <path
    d="M141.729 84.5C130.19 84.5 130.19 92.6447 118.651 92.6447C107.111 92.6447 107.111 84.5 95.5719 84.5C84.0343 84.5 84.0343 92.6447 72.4968 92.6447C60.9589 92.6447 60.9589 84.5 49.4207 84.5C37.8831 84.5 37.8831 92.6447 26.3459 92.6447C14.8087 92.6447 14.8087 84.5 3.27148 84.5V165.946H141.729V84.5H141.729Z"
    fill="#98C8ED" />
  <path
    d="M102.361 92.6447C105.969 92.6447 108.448 91.8485 110.506 90.754C105.983 88.348 103.504 84.5 95.5718 84.5C91.964 84.5 89.4845 85.2961 87.4277 86.3907C91.9501 88.797 94.43 92.6447 102.361 92.6447Z"
    fill="#7AB9E8" />
  <path
    d="M56.2075 92.6446C59.8153 92.6446 62.2948 91.8482 64.3522 90.7536C59.8308 88.3474 57.3513 84.5003 49.4208 84.5003C45.813 84.5003 43.3335 85.2968 41.2761 86.3913C45.7975 88.7976 48.2774 92.6446 56.2075 92.6446Z"
    fill="#7AB9E8" />
  <path d="M125.44 91.3963V165.946H141.729V84.5C133.042 84.5 130.893 89.1142 125.44 91.3963Z"
    fill="#7AB9E8" />
  <path
    d="M10.0564 92.6447C13.6645 92.6447 16.144 91.8482 18.2011 90.7537C13.6803 88.3471 11.2005 84.5 3.271 84.5C3.271 84.5 3.271 90.3282 3.271 91.3976C5.06134 92.1463 7.20553 92.6447 10.0564 92.6447Z"
    fill="#7AB9E8" />
  <path
    d="M118.651 132.349C111.912 132.349 108.426 129.889 105.35 127.718C102.569 125.755 100.372 124.205 95.5722 124.205C90.7728 124.205 88.5765 125.755 85.7959 127.718C82.7209 129.889 79.2349 132.349 72.4971 132.349C65.7585 132.349 62.2732 129.889 59.1979 127.718C56.4173 125.755 54.2206 124.205 49.421 124.205C44.6216 124.205 42.4256 125.755 39.6451 127.718C36.5697 129.889 33.0841 132.349 26.3462 132.349C24.6595 132.349 23.292 130.982 23.292 129.295C23.292 127.609 24.6595 126.241 26.3462 126.241C31.1455 126.241 33.3415 124.691 36.1221 122.728C39.1971 120.557 42.6824 118.097 49.421 118.097C56.1595 118.097 59.6448 120.557 62.7202 122.728C65.5007 124.691 67.6974 126.241 72.4971 126.241C77.2967 126.241 79.4927 124.691 82.2733 122.728C85.3487 120.557 88.8336 118.097 95.5722 118.097C102.311 118.097 105.797 120.557 108.873 122.728C111.654 124.691 113.85 126.241 118.651 126.241C120.338 126.241 121.705 127.609 121.705 129.295C121.705 130.982 120.338 132.349 118.651 132.349Z"
    fill="#B4D8F1" />
  <path
    d="M3.05383 81.4458C9.79271 81.4458 13.2787 83.9062 16.3543 86.0771C19.1352 88.0401 21.3319 89.5901 26.1322 89.5901C27.0033 89.5901 27.7869 89.5377 28.5055 89.4423V9.16264C28.5055 7.47825 27.1357 6.10843 25.4513 6.10843C23.7669 6.10843 22.3971 7.47825 22.3971 9.16264V75.108C22.3971 76.7947 21.0299 78.1622 19.3429 78.1622C17.6558 78.1622 16.2886 76.7947 16.2886 75.108V9.16264C16.2886 4.11013 20.3994 0 25.4513 0C30.5031 0 34.6143 4.11013 34.6143 9.16264V24.4337H109.951V9.16264C109.951 4.11013 114.062 0 119.114 0C124.167 0 128.277 4.11013 128.277 9.16264V86.0326C131.337 83.8725 134.82 81.4458 141.512 81.4458C143.198 81.4458 144.566 82.8133 144.566 84.5V165.946C144.566 167.632 143.198 169 141.512 169C139.825 169 138.457 167.632 138.457 165.946V87.8071C135.623 88.3233 133.848 89.5766 131.736 91.0672C128.661 93.2382 125.175 95.6986 118.437 95.6986C111.698 95.6986 108.213 93.2382 105.138 91.0672C102.358 89.1043 100.162 87.5542 95.3622 87.5542C90.5625 87.5542 88.3658 89.1046 85.5852 91.0672C82.5099 93.2382 79.0243 95.6986 72.2861 95.6986C65.5482 95.6986 62.0622 93.2382 58.9869 91.0672C56.2063 89.1043 54.0096 87.5542 49.2106 87.5542C44.4103 87.5542 42.2136 89.1046 39.4327 91.0672C36.3574 93.2382 32.8714 95.6986 26.1326 95.6986C19.3937 95.6986 15.9077 93.2382 12.8321 91.0672C10.7192 89.5759 8.94376 88.323 6.10838 87.8071V162.892H125.223C126.909 162.892 128.277 164.259 128.277 165.946C128.277 167.632 126.909 169 125.223 169H3.05415C1.36713 169 -4.57764e-05 167.632 -4.57764e-05 165.946V84.5C-0.00038147 82.8133 1.36681 81.4458 3.05383 81.4458ZM109.951 42.759H34.6143V52.9396H109.951V42.759ZM109.951 59.0483H34.6143V65.1568H109.951V59.0483ZM34.6143 30.5421V36.6506H109.951V30.5421H34.6143ZM122.168 89.1934V9.16264C122.168 7.47825 120.799 6.10843 119.114 6.10843C117.43 6.10843 116.06 7.47825 116.06 9.16264V89.4423C116.78 89.538 117.564 89.5905 118.437 89.5905C119.891 89.5905 121.103 89.4462 122.168 89.1934ZM49.211 81.4458C55.9495 81.4458 59.4348 83.9062 62.5098 86.0771C65.2904 88.0401 67.4871 89.5901 72.2861 89.5901C77.0857 89.5901 79.2824 88.0398 82.063 86.0771C85.1383 83.9062 88.624 81.4458 95.3622 81.4458C102.1 81.4458 105.586 83.9062 108.661 86.0771C109.102 86.3884 109.527 86.6871 109.952 86.9729V71.2649H34.6143V86.9766C35.0401 86.6894 35.4678 86.3894 35.9105 86.0771C38.9858 83.9062 42.4721 81.4458 49.211 81.4458Z"
    fill="#2E2D31" />
</svg>
