<svg width="18" height="18" viewBox="0 0 18 18" fill="none" xmlns="http://www.w3.org/2000/svg">
<path d="M11.7063 12.425L13.1063 11.025C13.2948 10.8388 13.5334 10.7113 13.793 10.658C14.0526 10.6048 14.3221 10.628 14.5688 10.725L16.275 11.4062C16.5243 11.5074 16.738 11.6801 16.8893 11.9026C17.0405 12.125 17.1226 12.3873 17.125 12.6562V15.7812C17.1236 15.9642 17.0851 16.145 17.0119 16.3128C16.9388 16.4805 16.8324 16.6317 16.6993 16.7572C16.5662 16.8828 16.409 16.9801 16.2373 17.0433C16.0655 17.1065 15.8828 17.1343 15.7 17.125C3.74377 16.3812 1.33127 6.25625 0.875023 2.38125C0.853843 2.19096 0.873194 1.99834 0.931803 1.81607C0.990411 1.63379 1.08695 1.46599 1.21506 1.32371C1.34318 1.18142 1.49997 1.06788 1.67512 0.990539C1.85027 0.913201 2.03981 0.873824 2.23127 0.874999H5.25002C5.5194 0.875796 5.78239 0.957166 6.00514 1.10864C6.2279 1.26012 6.40025 1.47477 6.50002 1.725L7.18127 3.43125C7.28143 3.67692 7.30698 3.94665 7.25474 4.20676C7.2025 4.46686 7.07477 4.70581 6.88752 4.89375L5.48752 6.29375C5.48752 6.29375 6.29377 11.75 11.7063 12.425Z" fill="white"/>
</svg>
