<svg width="41" height="43" viewBox="0 0 41 43" fill="none" xmlns="http://www.w3.org/2000/svg">
<path d="M2.8819 3.63019C0 6.56346 0 11.2849 0 20.7267V22.3958C0 31.8376 0 36.5591 2.8819 39.4922C5.76398 42.4253 10.403 42.4253 19.68 42.4253H21.32C30.5971 42.4253 35.2361 42.4253 38.118 39.4922C41 36.5591 41 31.8376 41 22.3958V20.7267C41 11.2848 41 6.56337 38.118 3.63019C35.2361 0.697106 30.5971 0.697105 21.32 0.697105H19.68C10.4029 0.697105 5.76389 0.697106 2.8819 3.63019ZM6.91875 13.3896H11.5996C11.7534 21.3527 15.2041 24.7257 17.9375 25.4212V13.3895H22.345V20.2572C25.0441 19.9617 27.88 16.8321 28.8366 13.3895H33.2441C32.8835 15.1749 32.1649 16.8653 31.1332 18.3552C30.1014 19.845 28.7788 21.1022 27.2479 22.0481C28.9572 22.9117 30.4669 24.1348 31.6773 25.6364C32.8876 27.138 33.771 28.8839 34.2691 30.7589H29.4175C28.9704 29.1303 28.0607 27.6723 26.8025 26.5681C25.5442 25.4638 23.9935 24.7623 22.345 24.5518V30.7589H21.8154C12.4709 30.7589 7.14086 24.2388 6.91875 13.3895V13.3896Z" fill="white"/>
</svg>
