<svg width="41" height="42" viewBox="0 0 41 42" fill="none" xmlns="http://www.w3.org/2000/svg">
<path d="M20.5 8.65569C13.8467 8.65569 8.43795 14.0644 8.42879 20.7177C8.42879 22.9965 9.06942 25.2204 10.2775 27.1331L10.5612 27.5907L9.34397 32.0385L13.9107 30.8396L14.35 31.105C16.1987 32.2032 18.3219 32.7889 20.4908 32.7889H20.5C27.1442 32.7889 32.6993 27.3802 32.6993 20.7269C32.6993 17.5055 31.3083 14.4762 29.0295 12.1974C26.7415 9.90948 23.7214 8.65569 20.5 8.65569ZM27.5926 25.8976C27.2906 26.7488 25.8446 27.5175 25.1491 27.6182C23.996 27.7921 23.0991 27.7006 20.802 26.7122C17.1688 25.1381 14.7893 21.4773 14.6063 21.2394C14.4232 21.0014 13.1237 19.2718 13.1237 17.4872C13.1237 15.7026 14.0571 14.824 14.3958 14.4579C14.7252 14.0918 15.1187 14.0003 15.3658 14.0003C15.6038 14.0003 15.8509 14.0003 16.0614 14.0095C16.281 14.0186 16.583 13.9271 16.8759 14.6318C17.1779 15.3548 17.9009 17.1394 17.9924 17.3224C18.0839 17.5055 18.148 17.716 18.0199 17.9539C17.3243 19.345 16.583 19.2901 16.9583 19.9307C18.3585 22.3376 19.7587 23.1704 21.8911 24.2412C22.2571 24.4242 22.4676 24.3968 22.6781 24.1497C22.8886 23.9117 23.5842 23.0881 23.8221 22.7311C24.06 22.3651 24.3071 22.4291 24.6366 22.5481C24.9661 22.6671 26.7507 23.5456 27.1167 23.7287C27.4828 23.9117 27.7208 24.0032 27.8123 24.1497C27.8946 24.3235 27.8946 25.0557 27.5926 25.8976ZM36.6071 0.345863H4.39286C1.96763 0.345863 0 2.3135 0 4.73872V36.953C0 39.3782 1.96763 41.3459 4.39286 41.3459H36.6071C39.0324 41.3459 41 39.3782 41 36.953V4.73872C41 2.3135 39.0324 0.345863 36.6071 0.345863ZM20.4908 35.2325C18.0565 35.2325 15.6679 34.6193 13.5538 33.4662L5.85714 35.4887L7.91629 27.966C6.6442 25.7695 5.97612 23.2711 5.97612 20.7086C5.98527 12.7099 12.4922 6.20301 20.4908 6.20301C24.3712 6.20301 28.0136 7.71305 30.7592 10.4586C33.4955 13.2041 35.1429 16.8465 35.1429 20.7269C35.1429 28.7256 28.4895 35.2325 20.4908 35.2325Z" fill="white"/>
</svg>
