<svg width="32" height="32" viewBox="0 0 32 32" fill="none" xmlns="http://www.w3.org/2000/svg">
<path d="M10 24.9999L13 21.9999H16L18.04 19.9599C20.1253 20.6864 22.3954 20.6835 24.4788 19.9518C26.5622 19.22 28.3355 17.8027 29.5084 15.9318C30.6814 14.0609 31.1845 11.8473 30.9355 9.65321C30.6865 7.45912 29.7001 5.41453 28.1377 3.8541C26.5753 2.29366 24.5295 1.30979 22.3351 1.06352C20.1407 0.817258 17.9277 1.32318 16.0583 2.49848C14.1888 3.67379 12.7738 5.44886 12.0446 7.53318C11.3154 9.61749 11.3154 11.8876 12.0445 13.9719L1 24.9999V30.9999H7L10 27.9999V24.9999Z" stroke="#0984E2" stroke-width="2" stroke-linecap="round" stroke-linejoin="round"/>
<path d="M23.5 10C24.3284 10 25 9.32843 25 8.5C25 7.67157 24.3284 7 23.5 7C22.6716 7 22 7.67157 22 8.5C22 9.32843 22.6716 10 23.5 10Z" stroke="#0984E2" stroke-width="2" stroke-linecap="round" stroke-linejoin="round"/>
</svg>
