<svg width="27" height="35" viewBox="0 0 27 35" fill="none" xmlns="http://www.w3.org/2000/svg">
<path d="M26.2187 12.8749C26.2208 10.7313 25.6809 8.62203 24.6495 6.74293C23.618 4.86383 22.1284 3.27591 20.3189 2.12668C18.5094 0.977445 16.4388 0.304185 14.2995 0.169442C12.1601 0.0346993 10.0215 0.442845 8.08209 1.35596C6.14272 2.26908 4.4656 3.65755 3.20652 5.39238C1.94743 7.12722 1.14724 9.15213 0.880277 11.279C0.613312 13.4059 0.888233 15.5658 1.6795 17.558C2.47077 19.5502 3.75271 21.31 5.40625 22.6741V33.6874C5.40507 33.8847 5.45505 34.079 5.5513 34.2512C5.64756 34.4235 5.7868 34.5678 5.95547 34.6702C6.12277 34.7754 6.31425 34.8359 6.5116 34.8461C6.70896 34.8562 6.90562 34.8156 7.08281 34.7281L13.5 31.505L19.9172 34.7281C20.0813 34.8006 20.2581 34.8399 20.4375 34.8437C20.7442 34.8437 21.0383 34.7219 21.2551 34.505C21.4719 34.2882 21.5937 33.9941 21.5937 33.6874V22.6741C23.0402 21.4835 24.2051 19.9873 25.0048 18.293C25.8044 16.5987 26.219 14.7484 26.2187 12.8749ZM3.09375 12.8749C3.09375 10.8168 3.70406 8.80482 4.84752 7.09352C5.99097 5.38222 7.6162 4.04843 9.5177 3.2608C11.4192 2.47318 13.5115 2.2671 15.5302 2.66863C17.5488 3.07015 19.403 4.06125 20.8583 5.51659C22.3137 6.97193 23.3048 8.82615 23.7063 10.8448C24.1078 12.8634 23.9017 14.9557 23.1141 16.8572C22.3265 18.7587 20.9927 20.384 19.2814 21.5274C17.5701 22.6709 15.5582 23.2812 13.5 23.2812C10.7413 23.2774 8.09661 22.1798 6.14589 20.229C4.19517 18.2783 3.09757 15.6337 3.09375 12.8749ZM19.2812 31.823L14.0203 29.178C13.858 29.0999 13.6801 29.0593 13.5 29.0593C13.3198 29.0593 13.142 29.0999 12.9797 29.178L7.71875 31.823V24.2062C9.50929 25.1186 11.4904 25.5943 13.5 25.5943C15.5096 25.5943 17.4907 25.1186 19.2812 24.2062V31.823ZM13.5 20.9687C15.1008 20.9687 16.6656 20.494 17.9966 19.6046C19.3277 18.7153 20.3651 17.4512 20.9776 15.9723C21.5902 14.4933 21.7505 12.8659 21.4382 11.2959C21.1259 9.72588 20.3551 8.28371 19.2231 7.15178C18.0912 6.01985 16.649 5.24899 15.079 4.93669C13.509 4.62439 11.8816 4.78468 10.4027 5.39727C8.92371 6.00987 7.65964 7.04727 6.77029 8.37828C5.88094 9.70929 5.40625 11.2741 5.40625 12.8749C5.40625 15.0215 6.25898 17.0802 7.77685 18.5981C9.29473 20.1159 11.3534 20.9687 13.5 20.9687ZM13.5 7.09367C14.6434 7.09367 15.7612 7.43274 16.7119 8.06799C17.6626 8.70324 18.4036 9.60615 18.8412 10.6625C19.2787 11.7189 19.3932 12.8813 19.1702 14.0028C18.9471 15.1242 18.3965 16.1544 17.588 16.9629C16.7794 17.7714 15.7493 18.322 14.6279 18.5451C13.5064 18.7682 12.344 18.6537 11.2876 18.2161C10.2312 17.7785 9.32832 17.0375 8.69306 16.0868C8.05781 15.1361 7.71875 14.0183 7.71875 12.8749C7.72256 11.3428 8.33288 9.87455 9.41625 8.79118C10.4996 7.70781 11.9679 7.09749 13.5 7.09367Z" fill="#0984E2"/>
</svg>
