<svg width="35" height="35" viewBox="0 0 35 35" fill="none" xmlns="http://www.w3.org/2000/svg">
<path fill-rule="evenodd" clip-rule="evenodd" d="M24.0625 32.8125C26.3831 32.8125 28.6087 31.8906 30.2497 30.2497C31.8906 28.6087 32.8125 26.3831 32.8125 24.0625C32.8125 21.7419 31.8906 19.5163 30.2497 17.8753C28.6087 16.2344 26.3831 15.3125 24.0625 15.3125C21.7419 15.3125 19.5163 16.2344 17.8753 17.8753C16.2344 19.5163 15.3125 21.7419 15.3125 24.0625C15.3125 26.3831 16.2344 28.6087 17.8753 30.2497C19.5163 31.8906 21.7419 32.8125 24.0625 32.8125ZM35 24.0625C35 26.9633 33.8477 29.7453 31.7965 31.7965C29.7453 33.8477 26.9633 35 24.0625 35C21.1617 35 18.3797 33.8477 16.3285 31.7965C14.2773 29.7453 13.125 26.9633 13.125 24.0625C13.125 21.1617 14.2773 18.3797 16.3285 16.3285C18.3797 14.2773 21.1617 13.125 24.0625 13.125C26.9633 13.125 29.7453 14.2773 31.7965 16.3285C33.8477 18.3797 35 21.1617 35 24.0625Z" fill="#0984E2"/>
<path d="M20.6457 26.1275C20.7486 27.4313 21.7789 28.4463 23.6273 28.5688V29.5312H24.4476V28.5622C26.3617 28.4288 27.4795 27.405 27.4795 25.9219C27.4795 24.57 26.6264 23.8744 25.0951 23.5156L24.4476 23.3625V20.7375C25.2701 20.8316 25.7907 21.28 25.9154 21.9013H27.3548C27.252 20.6434 26.1736 19.6613 24.4476 19.5541V18.5938H23.6273V19.5781C21.9932 19.7378 20.882 20.72 20.882 22.1112C20.882 23.3406 21.7089 24.1237 23.0848 24.4431L23.6273 24.5766V27.3591C22.7873 27.2322 22.2295 26.7684 22.1048 26.1275H20.6436H20.6457ZM23.6207 23.1656C22.8136 22.9797 22.3761 22.5969 22.3761 22.0237C22.3761 21.3806 22.8486 20.8994 23.6273 20.7594V23.1656H23.6207ZM24.5657 24.7975C25.5479 25.025 25.9986 25.3925 25.9986 26.0422C25.9986 26.7837 25.4364 27.2913 24.4476 27.3853V24.7713L24.5657 24.7975Z" fill="#0984E2"/>
<path d="M2.1875 0C1.60734 0 1.05094 0.230468 0.640704 0.640704C0.230468 1.05094 0 1.60734 0 2.1875L0 19.6875C0 20.2677 0.230468 20.8241 0.640704 21.2343C1.05094 21.6445 1.60734 21.875 2.1875 21.875H11.1191C11.2459 21.1225 11.4362 20.3919 11.6834 19.6875H6.5625C6.5625 18.5272 6.10156 17.4144 5.28109 16.5939C4.46062 15.7734 3.34782 15.3125 2.1875 15.3125V6.5625C3.34782 6.5625 4.46062 6.10156 5.28109 5.28109C6.10156 4.46062 6.5625 3.34782 6.5625 2.1875H28.4375C28.4375 3.34782 28.8984 4.46062 29.7189 5.28109C30.5394 6.10156 31.6522 6.5625 32.8125 6.5625V14.28C33.6437 15.0237 34.3809 15.8725 35 16.8044V2.1875C35 1.60734 34.7695 1.05094 34.3593 0.640704C33.9491 0.230468 33.3927 0 32.8125 0L2.1875 0Z" fill="#0984E2"/>
<path d="M21.8706 11.1191L21.875 10.9376C21.8746 10.1842 21.6796 9.44368 21.3089 8.78777C20.9382 8.13186 20.4045 7.58278 19.7593 7.19372C19.1142 6.80465 18.3795 6.58878 17.6264 6.56701C16.8733 6.54525 16.1274 6.71832 15.4608 7.06947C14.7943 7.42063 14.2297 7.93796 13.8218 8.57136C13.4139 9.20477 13.1764 9.93278 13.1325 10.6849C13.0885 11.437 13.2395 12.1877 13.5708 12.8643C13.9022 13.541 14.4026 14.1205 15.0238 14.547C16.9132 12.7472 19.2976 11.5535 21.8706 11.1191Z" fill="#0984E2"/>
</svg>
