<svg width="37" height="37" viewBox="0 0 37 37" fill="none" xmlns="http://www.w3.org/2000/svg">
<path d="M8.22214 8.42773H24.6666V10.0722H8.22214V8.42773ZM8.22214 16.65H16.5327V18.2944H8.22214V16.65ZM24.0273 12.5388H8.22214V14.1833H22.3839L24.0273 12.5388ZM13.1483 29.8795C13.4247 30.1965 13.7756 30.4399 14.1694 30.5877C14.5632 30.7355 14.9875 30.7832 15.4042 30.7264H23.424C23.6148 30.7264 23.7978 30.6506 23.9327 30.5157C24.0676 30.3808 24.1434 30.1978 24.1434 30.007C24.1434 29.8161 24.0676 29.6332 23.9327 29.4982C23.7978 29.3633 23.6148 29.2875 23.424 29.2875H15.4042C14.4679 29.2711 14.6344 28.4581 14.766 28.2063C14.9375 27.9107 15.0711 27.5948 15.1637 27.2659C15.2252 27.0012 15.1962 26.7236 15.0815 26.4773C14.9667 26.2311 14.7728 26.0303 14.5306 25.9072C14.1416 25.7319 13.7058 25.6889 13.29 25.7849C12.8742 25.8809 12.5013 26.1104 12.2284 26.4385C11.8749 26.8034 11.3836 27.3615 10.9129 27.9041C11.2037 26.7643 11.5809 25.3018 11.9509 23.8752C12.0569 23.5502 12.0358 23.197 11.8918 22.8869C11.7479 22.5768 11.4917 22.3328 11.1749 22.2041C10.8242 22.0837 10.4408 22.1009 10.1022 22.2522C9.76363 22.4034 9.49504 22.6775 9.35064 23.0191C8.90664 23.8732 5.39164 29.7634 5.35669 29.823C5.30824 29.9041 5.27624 29.994 5.26251 30.0875C5.24879 30.1809 5.25361 30.2762 5.27671 30.3678C5.2998 30.4594 5.34072 30.5456 5.39712 30.6214C5.45352 30.6972 5.5243 30.7612 5.60542 30.8097C5.76924 30.9075 5.96522 30.9363 6.15026 30.8896C6.3353 30.843 6.49422 30.7248 6.59208 30.5609C6.72364 30.34 9.52947 25.6399 10.4144 24.0705C9.74839 26.64 9.01455 29.4992 8.97139 29.7562C8.9228 29.9451 8.93738 30.1447 9.01292 30.3245C9.08845 30.5044 9.22078 30.6545 9.38969 30.7521C9.57783 30.8454 9.79167 30.8734 9.9975 30.8317C10.2033 30.79 10.3894 30.681 10.5264 30.5219C10.6559 30.4047 10.8985 30.1262 11.51 29.416C12.0798 28.7459 12.6633 28.0876 13.2603 27.4416C13.4844 27.2052 13.62 27.3101 13.4885 27.5423C13.2311 27.8675 13.0642 28.2549 13.0047 28.6653C12.9451 29.0757 12.995 29.4946 13.1493 29.8795H13.1483Z" fill="#0984E2"/>
<path d="M28.7779 22.2977V32.889H4.11122V4.11122H28.7779V9.24291L30.1448 7.87597C30.3553 7.66843 30.5859 7.4825 30.8334 7.32097V3.08344C30.8334 2.81086 30.7252 2.54944 30.5324 2.35669C30.3397 2.16395 30.0782 2.05566 29.8057 2.05566H3.08344C2.81086 2.05566 2.54944 2.16395 2.35669 2.35669C2.16395 2.54944 2.05566 2.81086 2.05566 3.08344V33.9168C2.05566 34.1894 2.16395 34.4508 2.35669 34.6435C2.54944 34.8363 2.81086 34.9446 3.08344 34.9446H29.8057C30.0782 34.9446 30.3397 34.8363 30.5324 34.6435C30.7252 34.4508 30.8334 34.1894 30.8334 33.9168V22.0223C30.203 22.3563 29.474 22.454 28.7779 22.2977Z" fill="#0984E2"/>
<path d="M35.076 12.1904L34.5385 11.6529C34.8132 11.2898 34.9523 10.8421 34.9316 10.3873C34.911 9.93251 34.7319 9.49925 34.4254 9.16258C34.0276 8.81194 33.5073 8.6327 32.9779 8.66388C32.4485 8.69507 31.9529 8.93416 31.599 9.32908L18.7261 22.1999L17.8658 25.4292C17.8522 25.4715 17.8506 25.5167 17.8611 25.5598C17.8715 25.6029 17.8938 25.6423 17.9253 25.6736C17.9568 25.7049 17.9963 25.7269 18.0395 25.7371C18.0827 25.7473 18.1279 25.7453 18.1701 25.7314L21.388 24.8609L33.4048 12.8441L33.9125 13.3528C33.948 13.3882 33.9761 13.4303 33.9953 13.4766C34.0145 13.5229 34.0244 13.5725 34.0244 13.6226C34.0244 13.6727 34.0145 13.7224 33.9953 13.7687C33.9761 13.8149 33.948 13.857 33.9125 13.8924L28.859 18.946C28.7048 19.1003 28.6183 19.3095 28.6184 19.5276C28.6185 19.7457 28.7052 19.9548 28.8595 20.1089C29.0137 20.2631 29.2229 20.3496 29.441 20.3495C29.6591 20.3494 29.8682 20.2627 30.0224 20.1084L35.076 15.0548C35.4558 14.6748 35.6692 14.1594 35.6692 13.6221C35.6692 13.0848 35.4558 12.5694 35.076 12.1894V12.1904Z" fill="#0984E2"/>
</svg>
