<svg width="27" height="37" viewBox="0 0 27 37" fill="none" xmlns="http://www.w3.org/2000/svg">
<path d="M25.9281 9.91563L16.9594 0.946875C16.7031 0.690625 16.4469 0.5625 16.0625 0.5625H3.25C1.84062 0.5625 0.6875 1.71562 0.6875 3.125V33.875C0.6875 35.2844 1.84062 36.4375 3.25 36.4375H23.75C25.1594 36.4375 26.3125 35.2844 26.3125 33.875V10.8125C26.3125 10.4281 26.1844 10.1719 25.9281 9.91563ZM16.0625 3.6375L23.2375 10.8125H16.0625V3.6375ZM23.75 33.875H3.25V3.125H13.5V10.8125C13.5 12.2219 14.6531 13.375 16.0625 13.375H23.75V33.875Z" fill="#0984E2"/>
</svg>
