<svg width="31" height="26" viewBox="0 0 31 26" fill="none" xmlns="http://www.w3.org/2000/svg">
<path d="M28.5292 13.2709L30.6875 15.4447L20.6204 25.6042L15.2708 20.2084L17.4292 18.0347L20.6204 21.2413L28.5292 13.2709ZM12.9583 0.166748C14.5938 0.166748 16.1624 0.816448 17.3188 1.97292C18.4753 3.1294 19.125 4.69791 19.125 6.33341C19.125 7.96892 18.4753 9.53743 17.3188 10.6939C16.1624 11.8504 14.5938 12.5001 12.9583 12.5001C11.3228 12.5001 9.75432 11.8504 8.59784 10.6939C7.44137 9.53743 6.79167 7.96892 6.79167 6.33341C6.79167 4.69791 7.44137 3.1294 8.59784 1.97292C9.75432 0.816448 11.3228 0.166748 12.9583 0.166748ZM12.9583 3.25008C12.1406 3.25008 11.3563 3.57493 10.7781 4.15317C10.1999 4.73141 9.875 5.51566 9.875 6.33341C9.875 7.15117 10.1999 7.93542 10.7781 8.51366C11.3563 9.0919 12.1406 9.41675 12.9583 9.41675C13.7761 9.41675 14.5603 9.0919 15.1386 8.51366C15.7168 7.93542 16.0417 7.15117 16.0417 6.33341C16.0417 5.51566 15.7168 4.73141 15.1386 4.15317C14.5603 3.57493 13.7761 3.25008 12.9583 3.25008ZM12.9583 14.0417C14.0067 14.0417 15.2708 14.1805 16.6737 14.4426L14.0992 17.0172L12.9583 16.9709C8.37958 16.9709 3.55417 19.2217 3.55417 20.2084V21.9042H13.1125L16.0417 24.8334H0.625V20.2084C0.625 16.1076 8.84208 14.0417 12.9583 14.0417Z" fill="#0984E2"/>
</svg>
