<svg width="105" height="104" viewBox="0 0 105 104" fill="none" xmlns="http://www.w3.org/2000/svg">
<rect x="0.5" width="104" height="104" rx="10" fill="#9FFBD2"/>
<path d="M37.0869 51.9842H68.9131C69.6462 51.9842 70.25 52.5304 70.25 53.1917V53.4361C70.1637 59.7611 64.4569 64.9217 57.4706 64.9217H57.2981V69.2629H58.6062C59.4688 69.2629 60.1587 69.9673 60.1444 70.8154V72.1379H45.8125V70.8154C45.8125 69.9673 46.5169 69.2629 47.365 69.2629H48.6731V64.9217H48.5294C41.5431 64.9217 35.8219 59.7611 35.75 53.4361V53.2046C35.75 52.529 36.3537 51.9828 37.0869 51.9828V51.9842Z" fill="#0984E2"/>
<path d="M57.3125 36.1861C55.5875 36.1861 54.0494 36.9594 53 38.1626C52.4647 37.5436 51.8026 37.0468 51.0586 36.7061C50.3145 36.3653 49.5059 36.1884 48.6875 36.1875C45.5106 36.1875 42.9375 38.752 42.9375 41.9203V44.8441H42.9519C42.9732 45.5884 43.284 46.295 43.8183 46.8136C44.3525 47.3323 45.0679 47.6221 45.8125 47.6214C46.5574 47.6217 47.2731 47.3314 47.8073 46.8122C48.3415 46.293 48.6522 45.5859 48.6731 44.8413V43.3923C48.6745 43.0529 48.7953 42.7248 49.0143 42.4656C49.2334 42.2064 49.5367 42.0326 49.8711 41.9746C50.2055 41.9166 50.5496 41.9782 50.8431 42.1486C51.1366 42.319 51.3608 42.5873 51.4762 42.9064L51.85 49.125C51.85 49.9142 52.3531 50.5596 52.9856 50.5596C53.6181 50.5596 54.1213 49.9128 54.1213 49.125L54.495 42.9193C54.6109 42.5983 54.8362 42.3283 55.1313 42.1569C55.4264 41.9854 55.7725 41.9234 56.1088 41.9818C56.4451 42.0401 56.7501 42.215 56.9702 42.4759C57.1903 42.7367 57.3115 43.0668 57.3125 43.4081V44.8542H57.3269C57.3467 45.5995 57.6569 46.3075 58.1913 46.8274C58.7257 47.3472 59.442 47.6378 60.1875 47.6372C60.9327 47.6375 61.6486 47.347 62.1828 46.8275C62.7171 46.308 63.0275 45.6005 63.0481 44.8556H63.0625V41.9188C63.0616 41.1648 62.9121 40.4184 62.6225 39.7221C62.333 39.0259 61.9092 38.3935 61.3752 37.8612C60.8412 37.3288 60.2076 36.9068 59.5105 36.6194C58.8134 36.332 58.0665 36.1848 57.3125 36.1861ZM67.375 39.0611C67.7562 39.0611 68.1219 38.9096 68.3915 38.64C68.6611 38.3705 68.8125 38.0048 68.8125 37.6236C68.8125 37.2423 68.6611 36.8767 68.3915 36.6071C68.1219 36.3375 67.7562 36.1861 67.375 36.1861C66.9938 36.1861 66.6281 36.3375 66.3585 36.6071C66.0889 36.8767 65.9375 37.2423 65.9375 37.6236C65.9375 38.0048 66.0889 38.3705 66.3585 38.64C66.6281 38.9096 66.9938 39.0611 67.375 39.0611ZM40.0625 49.1236C40.0625 49.5048 39.911 49.8705 39.6415 50.14C39.3719 50.4096 39.0062 50.5611 38.625 50.5611C38.2438 50.5611 37.8781 50.4096 37.6085 50.14C37.339 49.8705 37.1875 49.5048 37.1875 49.1236C37.1875 48.7423 37.339 48.3767 37.6085 48.1071C37.8781 47.8375 38.2438 47.6861 38.625 47.6861C39.0062 47.6861 39.3719 47.8375 39.6415 48.1071C39.911 48.3767 40.0625 48.7423 40.0625 49.1236Z" fill="#0984E2"/>
</svg>
