<svg width="104" height="104" viewBox="0 0 104 104" fill="none" xmlns="http://www.w3.org/2000/svg">
<rect x="0.5" width="103" height="104" rx="10" fill="#9FFBD2"/>
<mask id="mask0_20_35" style="mask-type:alpha" maskUnits="userSpaceOnUse" x="31" y="31" width="42" height="42">
<path d="M38.2501 56.5833C38.852 56.5833 39.448 56.4648 40.004 56.2344C40.5601 56.0041 41.0654 55.6665 41.491 55.2409C41.9166 54.8153 42.2542 54.31 42.4845 53.754C42.7149 53.1979 42.8334 52.6019 42.8334 52C42.8334 53.2156 43.3163 54.3814 44.1758 55.2409C45.0354 56.1004 46.2012 56.5833 47.4167 56.5833C48.6323 56.5833 49.7981 56.1004 50.6577 55.2409C51.5172 54.3814 52.0001 53.2156 52.0001 52C52.0001 53.2156 52.483 54.3814 53.3425 55.2409C54.2021 56.1004 55.3678 56.5833 56.5834 56.5833C57.799 56.5833 58.9648 56.1004 59.8243 55.2409C60.6839 54.3814 61.1667 53.2156 61.1667 52C61.1667 53.2156 61.6496 54.3814 62.5092 55.2409C63.3687 56.1004 64.5345 56.5833 65.7501 56.5833C66.9657 56.5833 68.1314 56.1004 68.991 55.2409C69.8505 54.3814 70.3334 53.2156 70.3334 52C70.3334 62.1255 62.1256 70.3333 52.0001 70.3333C41.8746 70.3333 33.6667 62.1255 33.6667 52C33.6667 53.2156 34.1496 54.3814 35.0092 55.2409C35.8687 56.1004 37.0345 56.5833 38.2501 56.5833ZM55.6667 41.9167C55.6667 42.8891 55.2804 43.8217 54.5928 44.5094C53.9052 45.197 52.9725 45.5833 52.0001 45.5833C51.0276 45.5833 50.095 45.197 49.4074 44.5094C48.7197 43.8217 48.3334 42.8891 48.3334 41.9167C48.3334 39.8908 52.0001 33.6667 52.0001 33.6667C52.0001 33.6667 55.6667 39.8908 55.6667 41.9167Z" fill="#555555" stroke="white" stroke-width="4" stroke-linecap="round" stroke-linejoin="round"/>
</mask>
<g mask="url(#mask0_20_35)">
<path d="M30 30H74V74H30V30Z" fill="#0984E2"/>
</g>
</svg>
