<svg width="104" height="104" viewBox="0 0 104 104" fill="none" xmlns="http://www.w3.org/2000/svg">
<rect x="0.5" width="103" height="104" rx="10" fill="#9FFBD2"/>
<path d="M31.69 52.5905C31.69 53.5372 30.9225 54.3047 29.9757 54.3047C29.0286 54.3047 28.2615 53.5372 28.2615 52.5905C28.2615 51.6433 29.0286 50.8757 29.9757 50.8757C30.9225 50.8757 31.69 51.6433 31.69 52.5905Z" fill="#0984E2"/>
<path d="M41.592 52.5905C41.592 54.8548 39.7563 56.6899 37.492 56.6899C35.2278 56.6899 33.3921 54.8547 33.3921 52.5905C33.3921 50.3262 35.2278 48.4905 37.492 48.4905C39.7563 48.4905 41.592 50.3262 41.592 52.5905Z" fill="#0984E2"/>
<path d="M68.8317 59.6126V55.7524C70.66 55.4757 72.0631 53.9022 72.0631 51.9961C72.0631 49.8955 70.36 48.1924 68.2593 48.1924C66.1587 48.1924 64.4556 49.8955 64.4556 51.9961C64.4556 53.9017 65.8586 55.4756 67.687 55.7524V59.5271C65.945 59.4028 64.0909 59.2975 62.1451 59.2145L62.1446 49.2663C65.0576 48.7094 67.2602 46.1518 67.2602 43.0767C67.2602 39.5942 64.4371 36.7712 60.9547 36.7712C57.4722 36.7712 54.6492 39.5943 54.6492 43.0767C54.6492 43.4287 54.6851 43.7719 54.741 44.1079C54.3171 43.9448 53.8583 43.8516 53.3767 43.8516C51.276 43.8516 49.5729 45.5546 49.5729 47.6553C49.5729 49.5609 50.976 51.1348 52.8043 51.4116V58.9964C52.3286 58.994 51.8508 58.992 51.3697 58.992C49.4 58.992 47.4761 59.0144 45.6074 59.0546L45.6079 47.299C48.5209 46.7421 50.7235 44.1845 50.7235 41.1094C50.7235 37.6269 47.9004 34.8039 44.418 34.8039C40.9357 34.8039 38.1125 37.627 38.1125 41.1094C38.1125 44.1427 40.2554 46.674 43.1092 47.2771V59.1221C29.8777 59.5426 20.1523 60.949 20.1523 62.6202C20.1523 64.6238 34.1295 66.2478 51.3704 66.2478C68.6113 66.2478 82.5885 64.6239 82.5885 62.6202C82.588 61.3681 77.1316 60.2646 68.8313 59.6126L68.8317 59.6126ZM53.9497 51.4118C55.6344 51.1569 56.9554 49.8009 57.1529 48.0983C57.8787 48.6488 58.7235 49.0494 59.6463 49.2441V59.1223C57.8093 59.0635 55.9051 59.0242 53.9496 59.0058L53.9497 51.4118Z" fill="#0984E2"/>
</svg>
