<svg width="105" height="104" viewBox="0 0 105 104" fill="none" xmlns="http://www.w3.org/2000/svg">
<rect x="0.5" width="104" height="104" rx="10" fill="#9FFBD2"/>
<path d="M75.8 64.5H74.6C72.647 64.5 71.165 63.8422 70.3932 63.1016C69.7257 62.4602 68.9188 62 68.0105 62H66.788C65.8798 62 65.0728 62.4602 64.4053 63.1016C63.635 63.8422 62.153 64.5 60.2 64.5C58.247 64.5 56.765 63.8422 55.9933 63.1016C55.3258 62.4602 54.5188 62 53.6105 62H52.388C51.4798 62 50.6728 62.4602 50.0053 63.1016C49.235 63.8422 47.753 64.5 45.8 64.5C43.847 64.5 42.365 63.8422 41.5933 63.1016C40.9258 62.4602 40.1188 62 39.2105 62H37.988C37.0798 62 36.2728 62.4602 35.6053 63.1016C34.835 63.8422 33.353 64.5 31.4 64.5H30.2C29.537 64.5 29 65.0594 29 65.75V68.25C29 68.9406 29.537 69.5 30.2 69.5H31.4C34.2965 69.5 36.854 68.5477 38.6 67.0125C40.346 68.5484 42.9035 69.5 45.8 69.5C48.6965 69.5 51.254 68.5477 53 67.0125C54.746 68.5484 57.3035 69.5 60.2 69.5C63.0965 69.5 65.654 68.5477 67.4 67.0125C69.146 68.5484 71.7035 69.5 74.6 69.5H75.8C76.463 69.5 77 68.9406 77 68.25V65.75C77 65.0594 76.463 64.5 75.8 64.5ZM45.8 62V54.5H60.2V62C61.634 62 62.5145 61.5187 62.7793 61.2641C63.467 60.6031 64.2192 60.1438 65 59.8523V42C65 40.6219 66.077 39.5 67.4 39.5C68.723 39.5 69.8 40.6219 69.8 42V43.25C69.8 43.9406 70.337 44.5 71 44.5H73.4C74.063 44.5 74.6 43.9406 74.6 43.25V42C74.6 37.8641 71.3705 34.5 67.4 34.5C63.4295 34.5 60.2 37.8641 60.2 42V49.5H45.8V42C45.8 40.6219 46.877 39.5 48.2 39.5C49.523 39.5 50.6 40.6219 50.6 42V43.25C50.6 43.9406 51.137 44.5 51.8 44.5H54.2C54.863 44.5 55.4 43.9406 55.4 43.25V42C55.4 37.8641 52.1705 34.5 48.2 34.5C44.2295 34.5 41 37.8641 41 42V59.8516C41.7808 60.143 42.533 60.6031 43.2208 61.2633C43.4855 61.5188 44.366 62 45.8 62Z" fill="#0984E2"/>
</svg>
